ffmpeg started on 2016-12-12 at 06:49:41
Report written to "Output/theora/results/ffmpeg/sintel7000k.log"
Command line:
Tools/ffmpeg/ffmpeg -benchmark -y -i Input/y4m/sintel.y4m -c:v libtheora -b:v 7000k -an Output/theora/encoded/sintel7000k.mkv
ffmpeg version N-82227-gdb23fde Copyright (c) 2000-2016 the FFmpeg developers
  built with gcc 5.4.0 (Ubuntu 5.4.0-6ubuntu1~16.04.2) 20160609
  configuration: --prefix=/home/jaroslav/ffmpeg_build --pkg-config-flags=--static --extra-cflags=-I/home/jaroslav/ffmpeg_build/include --extra-ldflags=-L/home/jaroslav/ffmpeg_build/lib --bindir=/home/jaroslav/bin --enable-gpl --enable-libass --enable-libfdk-aac --enable-libfreetype --enable-libmp3lame --enable-libopus --enable-libtheora --enable-libvorbis --enable-libvpx --enable-libx264 --enable-libx265 --enable-nvenc --enable-libmfx --enable-libxvid --enable-libgsm --enable-libopencore-amrnb --enable-version3 --enable-nonfree
  libavutil      55. 35.100 / 55. 35.100
  libavcodec     57. 66.101 / 57. 66.101
  libavformat    57. 57.100 / 57. 57.100
  libavdevice    57.  2.100 / 57.  2.100
  libavfilter     6. 66.100 /  6. 66.100
  libswscale      4.  3.100 /  4.  3.100
  libswresample   2.  4.100 /  2.  4.100
  libpostproc    54.  2.100 / 54.  2.100
Input #0, yuv4mpegpipe, from 'Input/y4m/sintel.y4m':
  Duration: 00:00:20.83, start: 0.000000, bitrate: 2057307 kb/s
    Stream #0:0: Video: rawvideo (I420 / 0x30323449), yuv420p(progressive), 4096x1744, SAR 1:1 DAR 256:109, 24 fps, 24 tbr, 24 tbn, 24 tbc
Output #0, matroska, to 'Output/theora/encoded/sintel7000k.mkv':
  Metadata:
    encoder         : Lavf57.57.100
    Stream #0:0: Video: theora (libtheora) (theo / 0x6F656874), yuv420p, 4096x1744 [SAR 1:1 DAR 256:109], q=2-31, 7000 kb/s, 24 fps, 1k tbn, 24 tbc
    Metadata:
      encoder         : Lavc57.66.101 libtheora
Stream mapping:
  Stream #0:0 -> #0:0 (rawvideo (native) -> theora (libtheora))
Press [q] to stop, [?] for help
frame=    3 fps=0.0 q=-0.0 size=       4kB time=00:00:00.08 bitrate= 380.5kbits/s speed=0.118x    frame=    5 fps=3.8 q=-0.0 size=       4kB time=00:00:00.16 bitrate= 190.2kbits/s speed=0.126x    frame=    7 fps=3.6 q=-0.0 size=       4kB time=00:00:00.25 bitrate= 127.3kbits/s speed=0.129x    frame=    9 fps=3.5 q=-0.0 size=       4kB time=00:00:00.33 bitrate=  95.7kbits/s speed=0.131x    frame=   11 fps=3.5 q=-0.0 size=       4kB time=00:00:00.41 bitrate=  76.5kbits/s speed=0.132x    frame=   13 fps=3.4 q=-0.0 size=     474kB time=00:00:00.50 bitrate=7753.0kbits/s speed=0.133x    frame=   16 fps=3.5 q=-0.0 size=     474kB time=00:00:00.62 bitrate=6204.9kbits/s speed=0.138x    frame=   18 fps=2.2 q=-0.0 size=     474kB time=00:00:00.70 bitrate=5478.5kbits/s speed=0.0864x    frame=   19 fps=1.6 q=-0.0 size=     474kB time=00:00:00.75 bitrate=5172.1kbits/s speed=0.0632x    frame=   20 fps=1.4 q=-0.0 size=     474kB time=00:00:00.79 bitrate=4898.2kbits/s speed=0.0549x    frame=   22 fps=1.5 q=-0.0 size=     474kB time=00:00:00.87 bitrate=4434.1kbits/s speed=0.0582x    frame=   24 fps=1.5 q=-0.0 size=     474kB time=00:00:00.95 bitrate=4050.3kbits/s speed=0.0612x    frame=   27 fps=1.6 q=-0.0 size=     956kB time=00:00:01.08 bitrate=7228.0kbits/s speed=0.066x    frame=   29 fps=1.7 q=-0.0 size=     956kB time=00:00:01.16 bitrate=6708.1kbits/s speed=0.0685x    frame=   31 fps=1.8 q=-0.0 size=     956kB time=00:00:01.25 bitrate=6263.1kbits/s speed=0.0709x    frame=   33 fps=1.8 q=-0.0 size=     956kB time=00:00:01.33 bitrate=5873.4kbits/s speed=0.073x    frame=   35 fps=1.9 q=-0.0 size=     956kB time=00:00:01.41 bitrate=5525.5kbits/s speed=0.0751x    frame=   37 fps=1.9 q=-0.0 size=    1346kB time=00:00:01.50 bitrate=7348.3kbits/s speed=0.077x    frame=   40 fps=2.0 q=-0.0 size=    1346kB time=00:00:01.62 bitrate=6783.4kbits/s speed=0.0803x    frame=   42 fps=2.0 q=-0.0 size=    1346kB time=00:00:01.70 bitrate=6453.9kbits/s speed=0.0819x    frame=   44 fps=2.1 q=-0.0 size=    1346kB time=00:00:01.79 bitrate=6151.6kbits/s speed=0.0836x    frame=   46 fps=2.1 q=-0.0 size=    1346kB time=00:00:01.87 bitrate=5879.4kbits/s speed=0.085x    frame=   48 fps=2.1 q=-0.0 size=    1346kB time=00:00:01.95 bitrate=5630.3kbits/s speed=0.0864x    frame=   51 fps=2.2 q=-0.0 size=    1711kB time=00:00:02.08 bitrate=6724.8kbits/s speed=0.089x    frame=   53 fps=2.2 q=-0.0 size=    1711kB time=00:00:02.16 bitrate=6464.3kbits/s speed=0.0902x    frame=   55 fps=2.2 q=-0.0 size=    1711kB time=00:00:02.25 bitrate=6225.9kbits/s speed=0.0913x    frame=   57 fps=2.3 q=-0.0 size=    2030kB time=00:00:02.33 bitrate=7124.2kbits/s speed=0.0923x    frame=   59 fps=2.3 q=-0.0 size=    2030kB time=00:00:02.41 bitrate=6876.7kbits/s speed=0.0931x    frame=   61 fps=2.3 q=-0.0 size=    2030kB time=00:00:02.50 bitrate=6648.5kbits/s speed=0.094x    frame=   63 fps=2.3 q=-0.0 size=    2030kB time=00:00:02.58 bitrate=6434.9kbits/s speed=0.0949x    frame=   65 fps=2.3 q=-0.0 size=    2030kB time=00:00:02.66 bitrate=6232.3kbits/s speed=0.0957x    frame=   67 fps=2.3 q=-0.0 size=    2387kB time=00:00:02.75 bitrate=7108.4kbits/s speed=0.0962x    frame=   69 fps=2.4 q=-0.0 size=    2445kB time=00:00:02.83 bitrate=7066.6kbits/s speed=0.0968x    frame=   71 fps=2.4 q=-0.0 size=    2530kB time=00:00:02.91 bitrate=7103.0kbits/s speed=0.0975x    frame=   73 fps=2.4 q=-0.0 size=    2561kB time=00:00:03.00 bitrate=6990.7kbits/s speed=0.0978x    frame=   75 fps=2.4 q=-0.0 size=    2645kB time=00:00:03.08 bitrate=7025.2kbits/s speed=0.0986x    frame=   77 fps=2.4 q=-0.0 size=    2673kB time=00:00:03.16 bitrate=6912.2kbits/s speed=0.0982x    frame=   79 fps=2.4 q=-0.0 size=    2753kB time=00:00:03.25 bitrate=6937.7kbits/s speed=0.0987x    frame=   81 fps=2.4 q=-0.0 size=    2816kB time=00:00:03.33 bitrate=6918.3kbits/s speed=0.0989x    frame=   83 fps=2.4 q=-0.0 size=    2880kB time=00:00:03.41 bitrate=6903.1kbits/s speed=0.0993x    frame=   85 fps=2.4 q=-0.0 size=    2950kB time=00:00:03.50 bitrate=6903.1kbits/s speed=0.0995x    frame=   87 fps=2.4 q=-0.0 size=    3013kB time=00:00:03.58 bitrate=6887.8kbits/s speed=0.0997x    frame=   89 fps=2.4 q=-0.0 size=    3084kB time=00:00:03.66 bitrate=6888.3kbits/s speed=0.0999x    frame=   91 fps=2.4 q=-0.0 size=    3159kB time=00:00:03.75 bitrate=6899.1kbits/s speed= 0.1x    frame=   93 fps=2.4 q=-0.0 size=    3198kB time=00:00:03.83 bitrate=6833.4kbits/s speed= 0.1x    frame=   95 fps=2.4 q=-0.0 size=    3271kB time=00:00:03.91 bitrate=6840.2kbits/s speed=0.101x    frame=   97 fps=2.5 q=-0.0 size=    3271kB time=00:00:04.00 bitrate=6698.3kbits/s speed=0.101x    frame=   99 fps=2.5 q=-0.0 size=    3421kB time=00:00:04.08 bitrate=6861.4kbits/s speed=0.102x    frame=  101 fps=2.5 q=-0.0 size=    3421kB time=00:00:04.16 bitrate=6723.1kbits/s speed=0.102x    frame=  103 fps=2.5 q=-0.0 size=    3578kB time=00:00:04.25 bitrate=6894.7kbits/s speed=0.102x    frame=  105 fps=2.5 q=-0.0 size=    3578kB time=00:00:04.33 bitrate=6762.6kbits/s speed=0.103x    frame=  107 fps=2.5 q=-0.0 size=    3578kB time=00:00:04.41 bitrate=6634.0kbits/s speed=0.103x    frame=  109 fps=2.5 q=-0.0 size=    3578kB time=00:00:04.50 bitrate=6511.7kbits/s speed=0.104x    frame=  111 fps=2.5 q=-0.0 size=    3578kB time=00:00:04.58 bitrate=6393.8kbits/s speed=0.104x    frame=  113 fps=2.5 q=-0.0 size=    3941kB time=00:00:04.66 bitrate=6916.6kbits/s speed=0.104x    frame=  115 fps=2.5 q=-0.0 size=    3941kB time=00:00:04.75 bitrate=6795.7kbits/s speed=0.105x    frame=  117 fps=2.5 q=-0.0 size=    4079kB time=00:00:04.83 bitrate=6912.5kbits/s speed=0.105x    frame=  119 fps=2.6 q=-0.0 size=    4079kB time=00:00:04.91 bitrate=6794.4kbits/s speed=0.105x    frame=  121 fps=2.6 q=-0.0 size=    4079kB time=00:00:05.00 bitrate=6681.6kbits/s speed=0.106x    frame=  123 fps=2.6 q=-0.0 size=    4079kB time=00:00:05.08 bitrate=6572.6kbits/s speed=0.106x    frame=  125 fps=2.6 q=-0.0 size=    4469kB time=00:00:05.16 bitrate=7084.6kbits/s speed=0.107x    frame=  127 fps=2.6 q=-0.0 size=    4580kB time=00:00:05.25 bitrate=7145.8kbits/s speed=0.107x    frame=  129 fps=2.6 q=-0.0 size=    4691kB time=00:00:05.33 bitrate=7204.6kbits/s speed=0.106x    frame=  131 fps=2.6 q=-0.0 size=    4806kB time=00:00:05.41 bitrate=7266.5kbits/s speed=0.107x    frame=  133 fps=2.6 q=-0.0 size=    4932kB time=00:00:05.50 bitrate=7344.2kbits/s speed=0.106x    frame=  135 fps=2.6 q=-0.0 size=    5060kB time=00:00:05.58 bitrate=7422.6kbits/s speed=0.106x    frame=  137 fps=2.6 q=-0.0 size=    5181kB time=00:00:05.66 bitrate=7488.3kbits/s speed=0.106x    frame=  139 fps=2.6 q=-0.0 size=    5241kB time=00:00:05.75 bitrate=7466.0kbits/s speed=0.106x    frame=  141 fps=2.6 q=-0.0 size=    5353kB time=00:00:05.83 bitrate=7516.1kbits/s speed=0.107x    frame=  143 fps=2.6 q=-0.0 size=    5353kB time=00:00:05.91 bitrate=7409.4kbits/s speed=0.107x    frame=  145 fps=2.6 q=-0.0 size=    5353kB time=00:00:06.00 bitrate=7306.9kbits/s speed=0.107x    frame=  147 fps=2.6 q=-0.0 size=    5353kB time=00:00:06.08 bitrate=7207.2kbits/s speed=0.108x    frame=  149 fps=2.6 q=-0.0 size=    5353kB time=00:00:06.16 bitrate=7109.1kbits/s speed=0.108x    frame=  151 fps=2.6 q=-0.0 size=    5353kB time=00:00:06.25 bitrate=7014.7kbits/s speed=0.108x    frame=  154 fps=2.6 q=-0.0 size=    5861kB time=00:00:06.37 bitrate=7530.8kbits/s speed=0.109x    frame=  156 fps=2.6 q=-0.0 size=    5861kB time=00:00:06.45 bitrate=7434.0kbits/s speed=0.109x    frame=  158 fps=2.6 q=-0.0 size=    6040kB time=00:00:06.54 bitrate=7561.7kbits/s speed=0.109x    frame=  160 fps=2.6 q=-0.0 size=    6040kB time=00:00:06.62 bitrate=7466.9kbits/s speed=0.11x    frame=  162 fps=2.7 q=-0.0 size=    6040kB time=00:00:06.70 bitrate=7374.6kbits/s speed=0.11x    frame=  164 fps=2.7 q=-0.0 size=    6224kB time=00:00:06.79 bitrate=7506.1kbits/s speed=0.11x    frame=  166 fps=2.7 q=-0.0 size=    6294kB time=00:00:06.87 bitrate=7498.9kbits/s speed=0.11x    frame=  168 fps=2.7 q=-0.0 size=    6403kB time=00:00:06.95 bitrate=7537.7kbits/s speed=0.11x    frame=  170 fps=2.7 q=-0.0 size=    6477kB time=00:00:07.04 bitrate=7534.0kbits/s speed=0.11x    frame=  172 fps=2.7 q=-0.0 size=    6552kB time=00:00:07.12 bitrate=7531.7kbits/s speed=0.11x    frame=  174 fps=2.7 q=-0.0 size=    6624kB time=00:00:07.20 bitrate=7527.5kbits/s speed=0.11x    frame=  176 fps=2.7 q=-0.0 size=    6698kB time=00:00:07.29 bitrate=7523.2kbits/s speed=0.11x    frame=  178 fps=2.7 q=-0.0 size=    6733kB time=00:00:07.37 bitrate=7478.0kbits/s speed=0.11x    frame=  180 fps=2.7 q=-0.0 size=    6733kB time=00:00:07.45 bitrate=7394.8kbits/s speed=0.11x    frame=  182 fps=2.7 q=-0.0 size=    6899kB time=00:00:07.54 bitrate=7492.1kbits/s speed=0.111x    frame=  184 fps=2.7 q=-0.0 size=    6971kB time=00:00:07.62 bitrate=7488.5kbits/s speed=0.111x    frame=  186 fps=2.7 q=-0.0 size=    6971kB time=00:00:07.70 bitrate=7407.8kbits/s speed=0.111x    frame=  188 fps=2.7 q=-0.0 size=    6971kB time=00:00:07.79 bitrate=7328.0kbits/s speed=0.111x    frame=  190 fps=2.7 q=-0.0 size=    6971kB time=00:00:07.87 bitrate=7250.8kbits/s speed=0.111x    frame=  192 fps=2.7 q=-0.0 size=    6971kB time=00:00:07.95 bitrate=7175.2kbits/s speed=0.111x    frame=  194 fps=2.7 q=-0.0 size=    7257kB time=00:00:08.04 bitrate=7391.9kbits/s speed=0.112x    frame=  196 fps=2.7 q=-0.0 size=    7330kB time=00:00:08.12 bitrate=7390.0kbits/s speed=0.112x    frame=  198 fps=2.7 q=-0.0 size=    7405kB time=00:00:08.20 bitrate=7389.3kbits/s speed=0.112x    frame=  200 fps=2.7 q=-0.0 size=    7481kB time=00:00:08.29 bitrate=7389.9kbits/s speed=0.112x    frame=  202 fps=2.7 q=-0.0 size=    7566kB time=00:00:08.37 bitrate=7399.7kbits/s speed=0.112x    frame=  204 fps=2.7 q=-0.0 size=    7657kB time=00:00:08.45 bitrate=7414.9kbits/s speed=0.111x    frame=  206 fps=2.7 q=-0.0 size=    7746kB time=00:00:08.54 bitrate=7428.0kbits/s speed=0.111x    frame=  208 fps=2.7 q=-0.0 size=    7837kB time=00:00:08.62 bitrate=7443.2kbits/s speed=0.111x    frame=  210 fps=2.7 q=-0.0 size=    7930kB time=00:00:08.70 bitrate=7459.5kbits/s speed=0.111x    frame=  212 fps=2.7 q=-0.0 size=    7930kB time=00:00:08.79 bitrate=7388.3kbits/s speed=0.111x    frame=  214 fps=2.7 q=-0.0 size=    7930kB time=00:00:08.87 bitrate=7319.2kbits/s speed=0.112x    frame=  216 fps=2.7 q=-0.0 size=    7930kB time=00:00:08.95 bitrate=7251.4kbits/s speed=0.112x    frame=  218 fps=2.7 q=-0.0 size=    7930kB time=00:00:09.04 bitrate=7184.0kbits/s speed=0.112x    frame=  220 fps=2.7 q=-0.0 size=    7930kB time=00:00:09.12 bitrate=7118.7kbits/s speed=0.112x    frame=  222 fps=2.7 q=-0.0 size=    8411kB time=00:00:09.20 bitrate=7482.2kbits/s speed=0.112x    frame=  225 fps=2.7 q=-0.0 size=    8411kB time=00:00:09.33 bitrate=7382.0kbits/s speed=0.113x    frame=  227 fps=2.7 q=-0.0 size=    8411kB time=00:00:09.41 bitrate=7316.2kbits/s speed=0.113x    frame=  229 fps=2.7 q=-0.0 size=    8411kB time=00:00:09.50 bitrate=7252.2kbits/s speed=0.113x    frame=  231 fps=2.7 q=-0.0 size=    8411kB time=00:00:09.58 bitrate=7189.4kbits/s speed=0.113x    frame=  233 fps=2.7 q=-0.0 size=    8411kB time=00:00:09.66 bitrate=7127.0kbits/s speed=0.114x    frame=  236 fps=2.7 q=-0.0 size=    8744kB time=00:00:09.79 bitrate=7314.7kbits/s speed=0.114x    frame=  238 fps=2.8 q=-0.0 size=    8744kB time=00:00:09.87 bitrate=7253.2kbits/s speed=0.114x    frame=  239 fps=2.7 q=-0.0 size=    8744kB time=00:00:09.91 bitrate=7222.5kbits/s speed=0.114x    frame=  241 fps=2.8 q=-0.0 size=    8744kB time=00:00:10.00 bitrate=7162.5kbits/s speed=0.114x    frame=  242 fps=2.7 q=-0.0 size=    9116kB time=00:00:10.04 bitrate=7435.8kbits/s speed=0.114x    frame=  244 fps=2.7 q=-0.0 size=    9116kB time=00:00:10.12 bitrate=7374.8kbits/s speed=0.114x    frame=  246 fps=2.7 q=-0.0 size=    9116kB time=00:00:10.20 bitrate=7314.9kbits/s speed=0.114x    frame=  248 fps=2.8 q=-0.0 size=    9116kB time=00:00:10.29 bitrate=7255.2kbits/s speed=0.114x    frame=  250 fps=2.8 q=-0.0 size=    9116kB time=00:00:10.37 bitrate=7197.1kbits/s speed=0.114x    frame=  251 fps=2.7 q=-0.0 size=    9116kB time=00:00:10.41 bitrate=7168.1kbits/s speed=0.114x    frame=  253 fps=2.7 q=-0.0 size=    9116kB time=00:00:10.50 bitrate=7111.5kbits/s speed=0.114x    frame=  256 fps=2.8 q=-0.0 size=    9712kB time=00:00:10.62 bitrate=7487.1kbits/s speed=0.114x    frame=  258 fps=2.8 q=-0.0 size=    9712kB time=00:00:10.70 bitrate=7429.1kbits/s speed=0.115x    frame=  260 fps=2.8 q=-0.0 size=    9712kB time=00:00:10.79 bitrate=7371.3kbits/s speed=0.115x    frame=  262 fps=2.8 q=-0.0 size=    9712kB time=00:00:10.87 bitrate=7315.0kbits/s speed=0.115x    frame=  264 fps=2.8 q=-0.0 size=    9712kB time=00:00:10.95 bitrate=7259.6kbits/s speed=0.115x    frame=  266 fps=2.8 q=-0.0 size=   10143kB time=00:00:11.04 bitrate=7524.5kbits/s speed=0.115x    frame=  269 fps=2.8 q=-0.0 size=   10143kB time=00:00:11.16 bitrate=7440.2kbits/s speed=0.116x    frame=  271 fps=2.8 q=-0.0 size=   10143kB time=00:00:11.25 bitrate=7385.4kbits/s speed=0.116x    frame=  273 fps=2.8 q=-0.0 size=   10143kB time=00:00:11.33 bitrate=7331.3kbits/s speed=0.116x    frame=  275 fps=2.8 q=-0.0 size=   10143kB time=00:00:11.41 bitrate=7277.3kbits/s speed=0.116x    frame=  277 fps=2.8 q=-0.0 size=   10143kB time=00:00:11.50 bitrate=7224.8kbits/s speed=0.116x    frame=  280 fps=2.8 q=-0.0 size=   10430kB time=00:00:11.62 bitrate=7349.4kbits/s speed=0.117x    frame=  282 fps=2.8 q=-0.0 size=   10430kB time=00:00:11.70 bitrate=7297.3kbits/s speed=0.117x    frame=  284 fps=2.8 q=-0.0 size=   10430kB time=00:00:11.79 bitrate=7245.3kbits/s speed=0.117x    frame=  286 fps=2.8 q=-0.0 size=   10430kB time=00:00:11.87 bitrate=7194.7kbits/s speed=0.117x    frame=  288 fps=2.8 q=-0.0 size=   10430kB time=00:00:11.95 bitrate=7144.8kbits/s speed=0.117x    frame=  290 fps=2.8 q=-0.0 size=   10758kB time=00:00:12.04 bitrate=7317.6kbits/s speed=0.117x    frame=  293 fps=2.8 q=-0.0 size=   10758kB time=00:00:12.16 bitrate=7242.4kbits/s speed=0.118x    frame=  295 fps=2.8 q=-0.0 size=   10758kB time=00:00:12.25 bitrate=7193.4kbits/s speed=0.118x    frame=  297 fps=2.8 q=-0.0 size=   10758kB time=00:00:12.33 bitrate=7144.9kbits/s speed=0.118x    frame=  299 fps=2.8 q=-0.0 size=   10758kB time=00:00:12.41 bitrate=7096.6kbits/s speed=0.118x    frame=  301 fps=2.8 q=-0.0 size=   10758kB time=00:00:12.50 bitrate=7049.5kbits/s speed=0.118x    frame=  304 fps=2.9 q=-0.0 size=   11065kB time=00:00:12.62 bitrate=7179.0kbits/s speed=0.119x    frame=  306 fps=2.9 q=-0.0 size=   11065kB time=00:00:12.70 bitrate=7132.1kbits/s speed=0.119x    frame=  308 fps=2.9 q=-0.0 size=   11065kB time=00:00:12.79 bitrate=7085.3kbits/s speed=0.119x    frame=  310 fps=2.9 q=-0.0 size=   11065kB time=00:00:12.87 bitrate=7039.6kbits/s speed=0.119x    frame=  312 fps=2.9 q=-0.0 size=   11065kB time=00:00:12.95 bitrate=6994.6kbits/s speed=0.119x    frame=  314 fps=2.9 q=-0.0 size=   11406kB time=00:00:13.04 bitrate=7163.9kbits/s speed=0.119x    frame=  317 fps=2.9 q=-0.0 size=   11406kB time=00:00:13.16 bitrate=7095.9kbits/s speed=0.12x    frame=  319 fps=2.9 q=-0.0 size=   11406kB time=00:00:13.25 bitrate=7051.4kbits/s speed=0.12x    frame=  321 fps=2.9 q=-0.0 size=   11406kB time=00:00:13.33 bitrate=7007.5kbits/s speed=0.12x    frame=  323 fps=2.9 q=-0.0 size=   11406kB time=00:00:13.41 bitrate=6963.7kbits/s speed=0.12x    frame=  325 fps=2.9 q=-0.0 size=   11406kB time=00:00:13.50 bitrate=6920.9kbits/s speed=0.12x    frame=  328 fps=2.9 q=-0.0 size=   11816kB time=00:00:13.62 bitrate=7104.0kbits/s speed=0.12x    frame=  330 fps=2.9 q=-0.0 size=   11816kB time=00:00:13.70 bitrate=7061.0kbits/s speed=0.12x    frame=  332 fps=2.9 q=-0.0 size=   11816kB time=00:00:13.79 bitrate=7018.0kbits/s speed=0.121x    frame=  334 fps=2.9 q=-0.0 size=   11816kB time=00:00:13.87 bitrate=6976.0kbits/s speed=0.121x    frame=  336 fps=2.9 q=-0.0 size=   11816kB time=00:00:13.95 bitrate=6934.5kbits/s speed=0.121x    frame=  338 fps=2.9 q=-0.0 size=   12216kB time=00:00:14.04 bitrate=7126.3kbits/s speed=0.121x    frame=  341 fps=2.9 q=-0.0 size=   12216kB time=00:00:14.16 bitrate=7063.5kbits/s speed=0.121x    frame=  343 fps=2.9 q=-0.0 size=   12216kB time=00:00:14.25 bitrate=7022.3kbits/s speed=0.121x    frame=  345 fps=2.9 q=-0.0 size=   12216kB time=00:00:14.33 bitrate=6981.7kbits/s speed=0.121x    frame=  347 fps=2.9 q=-0.0 size=   12216kB time=00:00:14.41 bitrate=6941.0kbits/s speed=0.121x    frame=  349 fps=2.9 q=-0.0 size=   12216kB time=00:00:14.50 bitrate=6901.3kbits/s speed=0.121x    frame=  352 fps=2.9 q=-0.0 size=   12608kB time=00:00:14.62 bitrate=7061.7kbits/s speed=0.122x    frame=  354 fps=2.9 q=-0.0 size=   12608kB time=00:00:14.70 bitrate=7021.9kbits/s speed=0.122x    frame=  356 fps=2.9 q=-0.0 size=   12608kB time=00:00:14.79 bitrate=6982.0kbits/s speed=0.122x    frame=  358 fps=2.9 q=-0.0 size=   12608kB time=00:00:14.87 bitrate=6943.0kbits/s speed=0.122x    frame=  360 fps=2.9 q=-0.0 size=   12608kB time=00:00:14.95 bitrate=6904.5kbits/s speed=0.122x    frame=  362 fps=2.9 q=-0.0 size=   13041kB time=00:00:15.04 bitrate=7101.5kbits/s speed=0.122x    frame=  364 fps=2.9 q=-0.0 size=   13197kB time=00:00:15.12 bitrate=7147.1kbits/s speed=0.122x    frame=  366 fps=2.9 q=-0.0 size=   13197kB time=00:00:15.20 bitrate=7108.1kbits/s speed=0.122x    frame=  368 fps=2.9 q=-0.0 size=   13197kB time=00:00:15.29 bitrate=7069.1kbits/s speed=0.122x    frame=  370 fps=2.9 q=-0.0 size=   13197kB time=00:00:15.37 bitrate=7030.9kbits/s speed=0.122x    frame=  372 fps=2.9 q=-0.0 size=   13197kB time=00:00:15.45 bitrate=6993.1kbits/s speed=0.122x    frame=  374 fps=2.9 q=-0.0 size=   13197kB time=00:00:15.54 bitrate=6955.4kbits/s speed=0.123x    frame=  377 fps=3.0 q=-0.0 size=   13594kB time=00:00:15.66 bitrate=7107.7kbits/s speed=0.123x    frame=  379 fps=3.0 q=-0.0 size=   13594kB time=00:00:15.75 bitrate=7070.3kbits/s speed=0.123x    frame=  381 fps=3.0 q=-0.0 size=   13594kB time=00:00:15.83 bitrate=7033.2kbits/s speed=0.123x    frame=  383 fps=3.0 q=-0.0 size=   13594kB time=00:00:15.91 bitrate=6996.1kbits/s speed=0.123x    frame=  385 fps=3.0 q=-0.0 size=   13594kB time=00:00:16.00 bitrate=6959.8kbits/s speed=0.123x    frame=  387 fps=3.0 q=-0.0 size=   13963kB time=00:00:16.08 bitrate=7111.6kbits/s speed=0.123x    frame=  390 fps=3.0 q=-0.0 size=   13963kB time=00:00:16.20 bitrate=7056.8kbits/s speed=0.123x    frame=  392 fps=3.0 q=-0.0 size=   13963kB time=00:00:16.29 bitrate=7020.4kbits/s speed=0.123x    frame=  394 fps=3.0 q=-0.0 size=   13963kB time=00:00:16.37 bitrate=6984.8kbits/s speed=0.123x    frame=  396 fps=3.0 q=-0.0 size=   13963kB time=00:00:16.45 bitrate=6949.6kbits/s speed=0.123x    frame=  398 fps=3.0 q=-0.0 size=   13963kB time=00:00:16.54 bitrate=6914.3kbits/s speed=0.124x    frame=  401 fps=3.0 q=-0.0 size=   14572kB time=00:00:16.66 bitrate=7161.7kbits/s speed=0.124x    frame=  403 fps=3.0 q=-0.0 size=   14572kB time=00:00:16.75 bitrate=7126.2kbits/s speed=0.124x    frame=  405 fps=3.0 q=-0.0 size=   14572kB time=00:00:16.83 bitrate=7091.1kbits/s speed=0.124x    frame=  407 fps=3.0 q=-0.0 size=   14572kB time=00:00:16.91 bitrate=7055.9kbits/s speed=0.124x    frame=  409 fps=3.0 q=-0.0 size=   14572kB time=00:00:17.00 bitrate=7021.4kbits/s speed=0.124x    frame=  411 fps=3.0 q=-0.0 size=   14926kB time=00:00:17.08 bitrate=7157.2kbits/s speed=0.124x    frame=  414 fps=3.0 q=-0.0 size=   14926kB time=00:00:17.20 bitrate=7105.2kbits/s speed=0.124x    frame=  416 fps=3.0 q=-0.0 size=   14926kB time=00:00:17.29 bitrate=7070.7kbits/s speed=0.124x    frame=  418 fps=3.0 q=-0.0 size=   14926kB time=00:00:17.37 bitrate=7037.0kbits/s speed=0.125x    frame=  420 fps=3.0 q=-0.0 size=   15141kB time=00:00:17.45 bitrate=7104.5kbits/s speed=0.124x    frame=  422 fps=3.0 q=-0.0 size=   15141kB time=00:00:17.54 bitrate=7070.5kbits/s speed=0.125x    frame=  424 fps=3.0 q=-0.0 size=   15141kB time=00:00:17.62 bitrate=7037.2kbits/s speed=0.125x    frame=  426 fps=3.0 q=-0.0 size=   15141kB time=00:00:17.70 bitrate=7004.2kbits/s speed=0.125x    frame=  428 fps=3.0 q=-0.0 size=   15141kB time=00:00:17.79 bitrate=6971.2kbits/s speed=0.125x    frame=  430 fps=3.0 q=-0.0 size=   15141kB time=00:00:17.87 bitrate=6938.8kbits/s speed=0.125x    frame=  433 fps=3.0 q=-0.0 size=   15679kB time=00:00:18.00 bitrate=7135.3kbits/s speed=0.125x    frame=  435 fps=3.0 q=-0.0 size=   15679kB time=00:00:18.08 bitrate=7102.5kbits/s speed=0.125x    frame=  437 fps=3.0 q=-0.0 size=   15679kB time=00:00:18.16 bitrate=7069.7kbits/s speed=0.125x    frame=  439 fps=3.0 q=-0.0 size=   15679kB time=00:00:18.25 bitrate=7037.5kbits/s speed=0.125x    frame=  441 fps=3.0 q=-0.0 size=   15679kB time=00:00:18.33 bitrate=7005.7kbits/s speed=0.125x    frame=  443 fps=3.0 q=-0.0 size=   15971kB time=00:00:18.41 bitrate=7103.6kbits/s speed=0.125x    frame=  446 fps=3.0 q=-0.0 size=   15971kB time=00:00:18.54 bitrate=7055.7kbits/s speed=0.125x    frame=  448 fps=3.0 q=-0.0 size=   15971kB time=00:00:18.62 bitrate=7024.2kbits/s speed=0.126x    frame=  450 fps=3.0 q=-0.0 size=   15971kB time=00:00:18.70 bitrate=6993.1kbits/s speed=0.126x    frame=  452 fps=3.0 q=-0.0 size=   15971kB time=00:00:18.79 bitrate=6961.8kbits/s speed=0.126x    frame=  454 fps=3.0 q=-0.0 size=   15971kB time=00:00:18.87 bitrate=6931.2kbits/s speed=0.126x    frame=  457 fps=3.0 q=-0.0 size=   16394kB time=00:00:19.00 bitrate=7068.2kbits/s speed=0.126x    frame=  459 fps=3.0 q=-0.0 size=   16394kB time=00:00:19.08 bitrate=7037.5kbits/s speed=0.126x    frame=  461 fps=3.0 q=-0.0 size=   16394kB time=00:00:19.16 bitrate=7006.7kbits/s speed=0.126x    frame=  463 fps=3.0 q=-0.0 size=   16394kB time=00:00:19.25 bitrate=6976.4kbits/s speed=0.126x    frame=  465 fps=3.0 q=-0.0 size=   16394kB time=00:00:19.33 bitrate=6946.5kbits/s speed=0.126x    frame=  467 fps=3.0 q=-0.0 size=   16806kB time=00:00:19.41 bitrate=7089.9kbits/s speed=0.126x    frame=  470 fps=3.0 q=-0.0 size=   16806kB time=00:00:19.54 bitrate=7044.5kbits/s speed=0.126x    frame=  472 fps=3.0 q=-0.0 size=   16806kB time=00:00:19.62 bitrate=7014.7kbits/s speed=0.126x    frame=  474 fps=3.0 q=-0.0 size=   16806kB time=00:00:19.70 bitrate=6985.2kbits/s speed=0.126x    frame=  476 fps=3.0 q=-0.0 size=   16806kB time=00:00:19.79 bitrate=6955.5kbits/s speed=0.126x    frame=  478 fps=3.0 q=-0.0 size=   16806kB time=00:00:19.87 bitrate=6926.5kbits/s speed=0.126x    frame=  481 fps=3.0 q=-0.0 size=   17208kB time=00:00:20.00 bitrate=7047.9kbits/s speed=0.127x    frame=  483 fps=3.0 q=-0.0 size=   17208kB time=00:00:20.08 bitrate=7018.8kbits/s speed=0.127x    frame=  485 fps=3.0 q=-0.0 size=   17208kB time=00:00:20.16 bitrate=6989.5kbits/s speed=0.127x    frame=  487 fps=3.1 q=-0.0 size=   17208kB time=00:00:20.25 bitrate=6960.9kbits/s speed=0.127x    frame=  489 fps=3.1 q=-0.0 size=   17208kB time=00:00:20.33 bitrate=6932.5kbits/s speed=0.127x    frame=  491 fps=3.1 q=-0.0 size=   17593kB time=00:00:20.41 bitrate=7058.6kbits/s speed=0.127x    frame=  494 fps=3.1 q=-0.0 size=   17593kB time=00:00:20.54 bitrate=7015.7kbits/s speed=0.127x    frame=  496 fps=3.1 q=-0.0 size=   17593kB time=00:00:20.62 bitrate=6987.4kbits/s speed=0.127x    frame=  498 fps=3.1 q=-0.0 size=   17593kB time=00:00:20.70 bitrate=6959.4kbits/s speed=0.127x    frame=  500 fps=3.1 q=-0.0 size=   17593kB time=00:00:20.79 bitrate=6931.3kbits/s speed=0.127x    frame=  500 fps=3.1 q=-0.0 Lsize=   17984kB time=00:00:20.79 bitrate=7085.4kbits/s speed=0.127x    
video:17972kB audio:0kB subtitle:0kB other streams:0kB global headers:3kB muxing overhead: 0.067455%
bench: utime=143.876s
bench: maxrss=249860kB
